<svg xmlns="http://www.w3.org/2000/svg" enable-background="new 0 0 512 512" version="1" viewBox="0 0 512 512"><path fill="#FF4A19" d="M93.867,12.801h324.267c51.733,0,93.867,42.133,93.867,93.867v311.467
			c0,51.733-42.133,93.867-93.867,93.867H93.867c-51.733,0-93.867-42.133-93.867-93.867V106.668
			C0.001,54.934,42.134,12.801,93.867,12.801"/><path fill="#260600" d="M98.133,34.134h315.733c42.667,0,76.8,34.133,76.8,76.8v302.933c0,42.667-34.133,76.8-76.8,76.8H98.133
			c-42.667,0-76.8-34.133-76.8-76.8V110.934C21.333,68.268,55.466,34.134,98.133,34.134"/><path fill="#FFF" d="M145.23,314.221l-16.983,63.688c0,1.698-0.849,1.698-3.397,1.698H93.642c-1.698,0-2.548-0.849-1.698-3.397
			l60.079-211.444c1.391-5.548,1.963-11.27,1.698-16.983c0-1.698,0.849-1.698,1.698-1.698h45.006c1.698,0,1.698,0,2.548,1.698
			l67.934,228.216c0,1.698,0,2.548-1.698,2.548h-34.816c-1.698,0-2.548,0-3.397-1.698l-17.833-63.688l-67.934,0.849L145.23,314.221z
			 M204.672,279.405c-5.944-23.777-20.38-74.727-25.475-99.353l0,0c-4.246,24.626-15.922,67.085-24.626,99.353H204.672z
			 M291.288,242.254c0-1.698,0-9.341-0.849-22.079c0-1.698,0.849-1.698,1.698-2.548c20.727-8.806,42.883-13.769,65.386-14.648
			c29.721,0,62.839,11.888,62.839,62.839v110.393c0.191,1.216-0.641,2.357-1.857,2.548c-0.229,0.036-0.462,0.036-0.691,0h-32.269
			c-1.216,0.191-2.357-0.641-2.548-1.857c-0.036-0.229-0.036-0.462,0-0.691V269.215c0-20.38-6.793-31.419-28.023-31.419
			c-8.126-0.138-16.201,1.304-23.777,4.246v135.868c0,1.698-0.849,2.548-1.698,2.548h-34.816c-1.216,0.191-2.357-0.641-2.548-1.857
			c-0.036-0.229-0.036-0.462,0-0.691l-0.849-135.868L291.288,242.254z"/><path fill="#FF4A19" d="M145.23,314.221l-16.983,63.688c0,1.698-0.849,1.698-3.397,1.698H93.642
				c-1.698,0-2.548-0.849-1.698-3.397l60.079-211.444c1.391-5.548,1.963-11.27,1.698-16.983c0-1.698,0.849-1.698,1.698-1.698h45.006
				c1.698,0,1.698,0,2.548,1.698l67.934,228.216c0,1.698,0,2.548-1.698,2.548h-34.816c-1.698,0-2.548,0-3.397-1.698l-17.833-63.688
				l-67.934,0.849L145.23,314.221z M204.672,279.405c-5.944-23.777-20.38-74.727-25.475-99.353l0,0
				c-4.246,24.626-15.922,67.085-24.626,99.353H204.672z M291.288,242.254c0-1.698,0-9.341-0.849-22.079
				c0-1.698,0.849-1.698,1.698-2.548c20.727-8.806,42.883-13.769,65.386-14.648c29.721,0,62.839,11.888,62.839,62.839v110.393
				c0.191,1.216-0.641,2.357-1.857,2.548c-0.229,0.036-0.462,0.036-0.691,0h-32.269c-1.216,0.191-2.357-0.641-2.548-1.857
				c-0.036-0.229-0.036-0.462,0-0.691V269.215c0-20.38-6.793-31.419-28.023-31.419c-8.126-0.138-16.201,1.304-23.777,4.246v135.868
				c0,1.698-0.849,2.548-1.698,2.548h-34.816c-1.216,0.191-2.357-0.641-2.548-1.857c-0.036-0.229-0.036-0.462,0-0.691
				l-0.849-135.868L291.288,242.254z" opacity=".15"/></svg>